<svg aria-hidden="true" style="position: absolute; width: 0; height: 0; overflow: hidden;" version="1.1" xmlns="http://www.w3.org/2000/svg" xmlns:xlink="http://www.w3.org/1999/xlink">
    <defs>
        <symbol id="icon-mail-02" viewBox="0 0 32 32">
            <path stroke-linejoin="round" stroke-linecap="round" stroke-miterlimit="4" stroke-width="2.2857" d="M28.666 24l-8.857-8M12.19 16l-8.857 8M2.667 9.333l10.887 7.621c0.882 0.617 1.322 0.926 1.802 1.045 0.423 0.106 0.866 0.106 1.29 0 0.479-0.12 0.92-0.428 1.802-1.045l10.887-7.621M9.067 26.667h13.867c2.24 0 3.36 0 4.216-0.436 0.753-0.384 1.365-0.995 1.748-1.748 0.436-0.856 0.436-1.976 0.436-4.216v-8.533c0-2.24 0-3.36-0.436-4.216-0.383-0.753-0.995-1.365-1.748-1.748-0.856-0.436-1.976-0.436-4.216-0.436h-13.867c-2.24 0-3.36 0-4.216 0.436-0.753 0.383-1.365 0.995-1.748 1.748-0.436 0.856-0.436 1.976-0.436 4.216v8.533c0 2.24 0 3.36 0.436 4.216 0.384 0.753 0.995 1.365 1.748 1.748 0.856 0.436 1.976 0.436 4.216 0.436z"></path>
        </symbol>
        <symbol id="icon-lock-02" viewBox="0 0 32 32">
            <path stroke-linejoin="round" stroke-linecap="round" stroke-miterlimit="4" stroke-width="2.2857" d="M22.667 14.667v-4c0-3.682-2.985-6.667-6.667-6.667s-6.667 2.985-6.667 6.667v4M10.4 28h11.2c2.24 0 3.36 0 4.216-0.436 0.753-0.383 1.365-0.995 1.748-1.748 0.436-0.856 0.436-1.976 0.436-4.216v-0.533c0-2.24 0-3.36-0.436-4.216-0.383-0.753-0.995-1.365-1.748-1.748-0.856-0.436-1.976-0.436-4.216-0.436h-11.2c-2.24 0-3.36 0-4.216 0.436-0.753 0.384-1.365 0.995-1.748 1.748-0.436 0.856-0.436 1.976-0.436 4.216v0.533c0 2.24 0 3.36 0.436 4.216 0.383 0.753 0.995 1.365 1.748 1.748 0.856 0.436 1.976 0.436 4.216 0.436z"></path>
        </symbol>
        <symbol id="icon-x-close" viewBox="0 0 32 32">
            <path stroke-linejoin="round" stroke-linecap="round" stroke-miterlimit="4" stroke-width="3.4286" d="M24 8l-16 16M8 8l16 16"></path>
        </symbol>
        <symbol id="icon-align-left" viewBox="0 0 32 32">
            <path stroke-linejoin="round" stroke-linecap="round" stroke-miterlimit="4" stroke-width="2.2857" d="M22.667 13.333h-18.667"></path>
            <path stroke-linejoin="round" stroke-linecap="round" stroke-miterlimit="4" stroke-width="2.2857" d="M28 8h-24"></path>
            <path stroke-linejoin="round" stroke-linecap="round" stroke-miterlimit="4" stroke-width="2.2857" d="M28 18.667h-24"></path>
            <path stroke-linejoin="round" stroke-linecap="round" stroke-miterlimit="4" stroke-width="2.2857" d="M22.667 24h-18.667"></path>
        </symbol>
        <symbol id="icon-Switcher-2" viewBox="0 0 50 32">
            <path d="M2.37 14.222c0-6.546 5.306-11.852 11.852-11.852h23.704c6.546 0 11.852 5.306 11.852 11.852s-5.306 11.852-11.852 11.852h-23.704c-6.546 0-11.852-5.306-11.852-11.852z"></path>
            <path d="M14.222 24.889c5.891 0 10.667-4.776 10.667-10.667s-4.776-10.667-10.667-10.667c-5.891 0-10.667 4.776-10.667 10.667s4.776 10.667 10.667 10.667z"></path>
        </symbol>
        <symbol id="icon-Switcher-3" viewBox="0 0 52 32">
            <path d="M0 14.222c0-6.546 5.306-11.852 11.852-11.852h23.704c6.546 0 11.852 5.306 11.852 11.852s-5.306 11.852-11.852 11.852h-23.704c-6.546 0-11.852-5.306-11.852-11.852z"></path>
            <path d="M35.556 24.889c5.891 0 10.667-4.776 10.667-10.667s-4.776-10.667-10.667-10.667-10.667 4.776-10.667 10.667c0 5.891 4.776 10.667 10.667 10.667z"></path>
        </symbol>
        <symbol id="icon-trash-03" viewBox="0 0 32 32">
            <path stroke-linejoin="round" stroke-linecap="round" stroke-miterlimit="4" stroke-width="2.9091" d="M12 4h8M4 8h24M25.333 8l-0.935 14.026c-0.14 2.104-0.21 3.157-0.665 3.954-0.4 0.702-1.004 1.267-1.731 1.619-0.826 0.4-1.881 0.4-3.99 0.4h-4.025c-2.109 0-3.163 0-3.99-0.4-0.727-0.353-1.331-0.917-1.731-1.619-0.455-0.798-0.525-1.85-0.665-3.954l-0.935-14.026M13.333 14v6.667M18.667 14v6.667"></path>
        </symbol>
        <symbol id="icon-user-fill" viewBox="0 0 32 32">
            <path d="M5.333 29.333c0-2.829 1.124-5.542 3.124-7.543s4.713-3.124 7.542-3.124c2.829 0 5.542 1.124 7.542 3.124s3.124 4.714 3.124 7.543h-21.333zM16 17.333c-4.42 0-8-3.58-8-8s3.58-8 8-8c4.42 0 8 3.58 8 8s-3.58 8-8 8z"></path>
        </symbol>
        <symbol id="icon-amazon" viewBox="0 0 99 32">
            <path d="M0 0.8h99.2v30.4h-99.2v-30.4z"></path>
        </symbol>
        <symbol id="icon-book-apple" viewBox="0 0 33 32">
            <path d="M0 0h33v32h-33v-32z"></path>
        </symbol>
        <symbol id="icon-book-shop" viewBox="0 0 34 32">
            <path d="M0 0h33.778v32h-33.778v-32z"></path>
        </symbol>
        <symbol id="icon-logo-light-theme" viewBox="0 0 32 32">
            <path d="M0 0l16.343 16.171 15.657 15.829v-32h-32z"></path>
            <path d="M4.457 4.229l11.943 11.829 11.257 11.486h-23.2v-23.314z"></path>
            <path d="M27.733 27.618l-11.943-11.829-11.257-11.486h23.2v23.314z"></path>
            <path d="M9.257 9.029l13.6 13.6h-13.6v-13.6z"></path>
            <path d="M9.257 9.029l13.6 13.6v-13.6h-13.6z"></path>
        </symbol>
        <symbol id="icon-logo-dark-theme" viewBox="0 0 32 32">
            <path d="M0 0l16.343 16.171 15.657 15.829v-32h-32z"></path>
            <path d="M4.457 4.229l11.943 11.829 11.257 11.486h-23.2v-23.314z"></path>
            <path d="M27.733 27.618l-11.943-11.829-11.257-11.486h23.2v23.314z"></path>
            <path d="M9.257 9.029l13.6 13.6h-13.6v-13.6z"></path>
            <path d="M9.257 9.029l13.6 13.6v-13.6h-13.6z"></path>
        </symbol>
<symbol id="scroll-up-btn" viewBox="0 0 55 32">
<path fill="#fff" style="fill: var(--color1, #fff)" d="M1.091 25.309l24.436-24.509c0.291-0.291 0.606-0.496 0.945-0.617 0.339-0.122 0.703-0.183 1.091-0.183s0.752 0.061 1.091 0.183c0.339 0.12 0.655 0.326 0.945 0.617l24.509 24.509c0.679 0.679 1.018 1.527 1.018 2.545s-0.364 1.891-1.091 2.618c-0.727 0.727-1.576 1.091-2.545 1.091s-1.818-0.364-2.545-1.091l-21.382-21.382-21.382 21.382c-0.679 0.679-1.515 1.018-2.508 1.018-0.995 0-1.856-0.364-2.583-1.091s-1.091-1.576-1.091-2.545c0-0.97 0.364-1.818 1.091-2.545z"></path>
</symbol>
    </defs>
</svg>
